# xmcd
# 
# Track frame offsets:
#     150
#     14475
#     27525
#     42160
#     55578
#     70229
#     88574
#     98742
#     122250
#     138790
#     159618
#     181125
#     190722
#     203815
# 
# Disc length: 2920
# 
# Revision: 2
# Processed by: cddbd v1.5.2PL0 Copyright (c) Steve Scherf et al.
# Submitted via: fre:ac v1.0.17
# 
DISCID=ae0b660e
DTITLE=John Denver - John Denver's Greatest Hits
DYEAR=2005
DGENRE=Folk
TTITLE0=Take Me Home, Country Roads
TTITLE1=Follow Me
TTITLE2=Starwood In Aspen
TTITLE3=For Baby (For Bobbie)
TTITLE4=Rhymes and Reasons
TTITLE5=Leaving, On A Jet Plane
TTITLE6=The Eagle And The Hawk
TTITLE7=Sunshine On My Shoulders
TTITLE8=Goodbye Again
TTITLE9=Poems, Prayers And Promises
TTITLE10=Rocky Mountain High
TTITLE11=I Guess He'd Rather Be In Colorado
TTITLE12=Daydream
TTITLE13=Friends With You
EXTD=Originally Released November 1973\nCD Edition Released 1984 ??\nRemastered and Expanded CD Edition Released June 7, 2005\n\nAMG EXPERT REVIEW: Released in 1973, Greatest Hits only sums up a handful of years of hitmaking for John Denver, but what years 
EXTD=those were. Between 1971 and 1973, Denver actually didn't have that many hits, but they were songs that defined him -- "Take Me Home, Country Roads," "Rocky Mountain High," and "Sunshine on My Shoulders." Those three songs, along with "Leaving on a J
EXTD=et Plane" -- which he wrote but Peter, Paul and Mary made into a standard -- are all here, along with seven other early songs recorded between 1969 and 1973 that may not be familiar to the average casual fan, but all capture Denver's warm folk-pop at i
EXTD=ts best. There may be more hits on Greatest Hits, Vol. 2, but this collection is every bit as engaging as that record. [Greatest Hits was reissued in 2005 with remastered sound, extensive liner notes, new photos, and the bonus tracks "Daydream," "I G
EXTD=uess I'd Rather Be in Colorado," and "Sail Away Home."] -- Stephen Thomas Erlewine \n \n
EXTT0=
EXTT1=
EXTT2=
EXTT3=
EXTT4=
EXTT5=
EXTT6=
EXTT7=
EXTT8=
EXTT9=
EXTT10=
EXTT11=
EXTT12=
EXTT13=
PLAYORDER=
